<?xml version="1.0" encoding="UTF-8"?>
<!DOCTYPE svg PUBLIC "-//W3C//DTD SVG 1.1//EN" "http://www.w3.org/Graphics/SVG/1.1/DTD/svg11.dtd">
<!-- Creator: CorelDRAW -->
<svg xmlns="http://www.w3.org/2000/svg" xml:space="preserve" width="1.70666in" height="1.70666in" version="1.1" style="shape-rendering:geometricPrecision; text-rendering:geometricPrecision; image-rendering:optimizeQuality; fill-rule:evenodd; clip-rule:evenodd"
viewBox="0 0 1707 1707"
 xmlns:xlink="http://www.w3.org/1999/xlink">
 <defs>
  <style type="text/css">
   <![CDATA[
    .fil0 {fill:#008CDF}
    .fil1 {fill:#98DB7C}
    .fil3 {fill:#D1E7F8}
    .fil2 {fill:#D83E3E}
   ]]>
  </style>
 </defs>
 <g id="Layer_x0020_1">
  <metadata id="CorelCorpID_0Corel-Layer"/>
  <g id="_314659824">
   <path class="fil0" d="M494 241c111,-58 232,-88 359,-88 141,0 280,39 401,112 9,5 12,17 8,26l199 186c9,-6 21,-3 27,5 93,131 141,286 141,448 0,428 -348,776 -776,776 -208,0 -402,-80 -549,-227 -146,-147 -227,-342 -227,-549 0,-205 79,-398 222,-544 5,-6 15,-7 22,-4l163 -119c-1,-9 1,-17 10,-22z"/>
   <path class="fil1" d="M296 673c-13,0 -26,-2 -38,-7 -29,-12 -48,-38 -58,-77l-39 -11c35,-70 82,-134 138,-192 5,-6 15,-7 22,-4l163 -119c-1,-9 1,-17 10,-22 29,-15 59,-29 90,-40 0,1 1,1 1,2l32 125c2,5 1,10 -1,14 0,2 -17,40 -37,80 -37,75 -52,89 -63,94 -1,4 -2,10 -3,14 -7,39 -17,98 -60,121 -22,12 -49,12 -80,1 -15,8 -45,21 -77,21z"/>
   <path class="fil1" d="M628 1562c-1,0 -2,0 -3,0 -29,-1 -43,-22 -45,-25 0,-1 -1,-2 -1,-3l-75 -173c-4,-8 -2,-16 3,-22 52,-56 -10,-122 -12,-125 -4,-4 -6,-9 -6,-14 1,-14 0,-31 -10,-38 -11,-8 -32,-3 -40,-1 -61,26 -109,-3 -119,-10 -52,-25 -81,-60 -86,-104 -13,-97 97,-203 145,-243 4,-3 8,-5 13,-5l51 0c11,0 20,9 20,20 0,1 0,2 0,4l142 72 104 11c2,-3 6,-6 10,-7 10,-4 21,2 25,13 38,117 102,145 112,148 25,4 41,15 46,31 10,28 -15,55 -21,61l-76 84c16,42 12,76 9,96 -1,4 -1,8 -1,10 0,6 0,22 -91,156 0,0 0,1 0,1 -33,42 -65,63 -94,63z"/>
   <path class="fil2" d="M363 493c-7,0 -13,-3 -16,-9l-117 -172c-63,-92 -62,-194 2,-258 35,-35 81,-54 131,-54 49,0 95,19 130,54 65,64 65,166 3,258l-116 172c-4,6 -10,9 -17,9 0,0 0,0 0,0z"/>
   <path class="fil3" d="M363 245c-48,0 -88,-39 -88,-87 0,-48 40,-88 88,-88 48,0 87,40 87,88 0,48 -39,87 -87,87z"/>
   <path class="fil2" d="M602 1121c-7,0 -13,-4 -17,-9l-117 -173c-62,-92 -62,-194 3,-258 35,-35 81,-54 130,-54 50,0 96,19 131,54 64,64 65,166 2,258l-115 173c-4,5 -10,9 -17,9 0,0 0,0 0,0z"/>
   <path class="fil3" d="M602 872c-49,0 -88,-39 -88,-87 0,-48 40,-88 88,-88 48,0 87,39 87,88 0,48 -39,87 -87,87z"/>
   <path class="fil1" d="M752 1700c-1,-10 0,-19 0,-23l5 -21c2,-5 4,-9 8,-12 3,-2 67,-49 113,-75 19,-11 38,-25 57,-39 39,-29 77,-57 116,-51 19,3 36,13 51,31 20,0 63,5 90,31 17,16 25,37 25,63 0,2 1,6 2,11 -109,58 -234,91 -366,91 -34,0 -68,-2 -101,-6z"/>
   <path class="fil1" d="M1167 1394c-4,0 -8,0 -12,-1 -42,-9 -60,-60 -62,-66 -1,-2 -1,-4 -1,-6l0 -276c0,-1 0,-1 0,-1 1,-30 -38,-46 -47,-49l-66 0c-2,0 -4,0 -5,-1 -75,-19 -103,-68 -114,-106 -10,-37 -5,-70 -4,-76 5,-48 24,-86 57,-111 -32,-13 -51,-47 -53,-51 0,-1 -1,-2 -1,-3 -31,-93 23,-146 58,-161l146 -84c19,-24 19,-36 18,-39 -3,-4 -21,-9 -54,-2 -15,3 -31,5 -32,5 -2,0 -4,0 -6,0 -33,-6 -47,-23 -53,-36 -16,-35 7,-75 10,-79 1,-2 3,-4 5,-6l88 -69c76,19 148,48 215,89 9,5 12,17 8,26l199 186c9,-6 21,-3 27,5 64,92 108,195 128,303 -50,27 -143,80 -143,80 -3,2 -7,3 -10,3l-48 0c16,35 19,67 20,90 3,88 -86,222 -157,330 -17,25 -33,50 -44,69 -1,1 -2,2 -3,3 -21,23 -43,34 -64,34z"/>
   <path class="fil2" d="M1404 615c-7,0 -13,-3 -17,-9l-117 -172c-63,-92 -62,-194 2,-258 35,-35 82,-54 131,-54 50,0 96,19 131,54 64,64 65,166 2,258l-116 172c-4,6 -10,9 -16,9 0,0 0,0 0,0z"/>
   <path class="fil3" d="M1404 367c-49,0 -88,-39 -88,-88 0,-48 39,-87 88,-87 48,0 87,39 87,87 0,49 -39,88 -87,88z"/>
  </g>
 </g>
</svg>
